<svg width="800" height="800" xmlns="http://www.w3.org/2000/svg" stroke="null">
 <g id="Layer_1">
  <title>Layer 1</title>
  <g stroke="null" id="svg_1">
   <g stroke="null" id="svg_2" transform="matrix(14.0536 0 0 14.0536 -8333.45 -8342.93)">
    <path fill="#ff8c00" stroke="null" id="svg_3" d="m596.991,621.18749l0,-13.178l11.412,-6.589l0,13.178l-11.412,6.589zm17.345,-23.192l7.246,-4.183l7.246,4.183l0,13.178l-7.246,-4.184l-7.246,4.184l0,-13.178zm20.425,3.425l11.412,6.589l0,13.178l-11.412,-6.589l0,-13.178zm11.412,26.618l0,8.367l-7.246,4.183l-11.412,-6.589l7.246,-4.183l0,-8.367l11.412,6.589zm-13.179,15.976l-11.412,6.589l-11.412,-6.589l11.412,-6.589l11.412,6.589zm-28.757,-3.426l-7.246,-4.183l0,-8.367l11.412,-6.589l0,8.367l7.246,4.183l-11.412,6.589zm24.591,-22.564l0,8.367l-7.246,4.183l-7.246,-4.183l0,-8.367l7.246,-4.184l7.246,4.184z"/>
   </g>
  </g>
 </g>

</svg>